<?xml version="1.0" encoding="UTF-8"?><svg id="Layer_1" xmlns="http://www.w3.org/2000/svg" viewBox="0 0 813.75 234.14"><path d="M221.29,129.53c.28.14.28.28,0,.42v-.42Z" fill="#5a3e2b"/><path d="M83.07.02l-9.96,5.95c-3.76,3.33-6.98,7.54-8.36,12.45-.56,1.99-1.35,4.83-.15,6.65,6.37-10.9,22.6-21.46,35.23-22.53,4.4-.37,6.78.59,10.75,1.17,9.17,1.35,19.11-1.08,28.12-2.85.34.31-1.78,2.82-2.11,3.19-12.43,13.87-34.79,10.94-45.45,26.95,4.98-.9,9.87-2.27,14.85-3.19,13.53-2.51,27.64-4.43,41.34-2.26,14.6,2.32,29.61,9.53,36.38,23.28l-6.71-3.69c-7.67-3.09-18.47-3.36-24.29,3.27,15.93,1.75,27.84,13.37,37.78,24.86,6.06,7.01,17.11,24.3,26.98,24.44,1.28.02,2.35-.5,3.6-.46.45.4-2.41,3-2.88,3.39-7.4,6.18-16.45,7.64-25.43,3.9-10.55-4.39-13.26-15.53-19.49-24.24-11.77-16.46-32.71-33.25-53.17-36.43-6.01-.93-11.88-.97-17.5,1.58-.1.76.96.41,1.43.37,25.93-2.44,55.65,24.79,67.43,46.05,3.84,6.92,7.03,14.72,7.09,22.73-20.08,3.53-33.59,20.34-45.55,35.34l-4.92,7.61c.8.14,1.21-.56,1.71-1.05,11.24-11.16,18.94-22.24,34.01-29.68,8-3.96,12.52-3.66,20.85-5.05,26.44-4.41,44.81-19.53,58.29-41.93.21-.35.47-1.42,1.06-1.06-3.39,27.14-20.1,51.17-47.88,57-4.52.95-9.17,1.09-13.69,2.02-25.52,5.24-46.3,30.92-59.2,52.06-6.34,10.38-11.86,21.36-16.39,32.66-.97.24-.69-.18-.97-.53-14.08-18.12-12.97-48.4-8.66-69.61,1.39-6.84,5-16.72,4.08-23.45-.76-5.61-10-11.2-11.87-17.04l.07-.56c7.44-5.17,11.54-15.93,10.56-24.9-.19-1.73-1.18-4.66-2.55-5.73,4.46,19.37-11.47,33.35-26.98,41.19l-8.49,9.35,5.57,16.35-13.71,15.92-24.03-1.37-9.98-15.05,5.87-13.09,1.24-27.17c-2.52-4.09-5.76-8.09-5.94-13.16.78-8.86,3.43-17.52,4.55-26.38C13.03,60.06-.99,48.78.06,32.71c13.78,3.82,28.08,5.11,42.23,2.53-.02-15.34,11.92-26.12,25.09-31.6C72.25,1.6,77.71-.19,83.07.02ZM30.84,104.26v17.84c0,.38-.79,1.54-.42,2.34l.74-.74,3.08-19.42c-2.51-3.88-7.42-7.39-7.55-12.32l1.6-15.49c-.63-.11-.53.8-.64,1.26-1.14,5.15-2.16,10.34-3.21,15.51.34,4.5,3.18,8.15,6.4,11.04ZM128.08,157.98c-1.31-.08-1.74,1.53-1.69,2.54.72.07.23-.67.7-1.32.21-.29,1.29-.2.99-1.22ZM125.95,161.38v-.84h-.42v.84h.42Z" fill="#5a3e2b"/><path d="M220.65,130.81c-6.12,9.88-16.87,15.09-27.61,18.46-5.29,1.66-10.87,2.55-16.14,4.25-30.08,9.72-49.31,48-64.68,73.34l-1.55,2.04c.9-3.2,2.47-6.48,3.88-9.49,11.6-24.85,29.66-59.1,56-70.12,15.14-6.33,30.75-5.13,44.72-14.73.8-.55,4.72-4.3,5.38-3.75Z" fill="#5a3e2b"/><path d="M283.61,195.13c1.36,1.2,2.68,1.84,3.96,1.92v2.4c-4.8-.24-10.88-.36-18.24-.36-8.16,0-14.24.12-18.24.36v-2.4c3.04-.16,5.2-.54,6.48-1.14,1.28-.6,1.92-1.66,1.92-3.18,0-1.44-.48-3.36-1.44-5.76l-7.2-19.68h-26.16l-3.12,8.28c-2.24,5.76-3.36,10.2-3.36,13.32,0,2.96.9,5.02,2.7,6.18,1.8,1.16,4.46,1.82,7.98,1.98v2.4c-5.44-.24-10.4-.36-14.88-.36-3.68,0-6.72.12-9.12.36v-2.4c3.92-.72,7.36-4.92,10.32-12.6l27.36-70.2c.88.08,2.28.12,4.2.12s3.28-.04,4.08-.12l29.16,75.12c1.04,2.64,2.24,4.56,3.6,5.76ZM250.01,164.89l-11.88-32.4-12.48,32.4h24.36Z" fill="#5a3e2b"/><path d="M345.53,147.31c-1.12-1.08-1.68-2.62-1.68-4.62s.48-3.88,1.44-5.88c-1.92.8-3.5,1.7-4.74,2.7-1.24,1-2.3,2.26-3.18,3.78,2.48,2.96,3.72,6.8,3.72,11.52,0,6.32-2.18,11.08-6.54,14.28-4.36,3.2-10.14,4.8-17.34,4.8h-2.16c-3.28,1.92-4.92,4.04-4.92,6.36,0,2.56,1.6,3.84,4.8,3.84h13.08c7.04,0,12.66,1.3,16.86,3.9,4.2,2.6,6.3,6.58,6.3,11.94,0,4.08-1.3,7.78-3.9,11.1-2.6,3.32-6.54,5.98-11.82,7.98-5.28,2-11.76,3-19.44,3s-13.98-.98-18.66-2.94c-4.68-1.96-7.02-4.78-7.02-8.46,0-2.48,1.12-4.7,3.36-6.66,2.24-1.96,5.56-3.5,9.96-4.62l1.08,1.92c-2.88,2.4-4.32,5.16-4.32,8.28,0,3.36,1.52,5.94,4.56,7.74,3.04,1.8,7.24,2.7,12.6,2.7s10.14-1.12,13.62-3.36c3.48-2.24,5.22-5.4,5.22-9.48,0-2.64-.98-4.72-2.94-6.24-1.96-1.52-5.38-2.28-10.26-2.28h-7.44c-5.12,0-9.12-.86-12-2.58-2.88-1.72-4.32-4.34-4.32-7.86,0-2.96,1.04-5.6,3.12-7.92,2.08-2.32,5.24-4.56,9.48-6.72-5.76-.72-10.32-2.64-13.68-5.76-3.36-3.12-5.04-7.44-5.04-12.96,0-6.32,2.18-11.08,6.54-14.28,4.36-3.2,10.14-4.8,17.34-4.8,8,0,14.12,1.88,18.36,5.64,1.52-2.16,3.4-3.88,5.64-5.16,2.24-1.28,4.52-1.92,6.84-1.92s4.3.7,5.7,2.1c1.4,1.4,2.1,3.22,2.1,5.46s-.62,3.98-1.86,5.22-2.7,1.86-4.38,1.86-2.96-.54-4.08-1.62ZM322.31,167.89c1.16-2.56,1.74-6.92,1.74-13.08s-.58-10.52-1.74-13.08c-1.16-2.56-2.86-3.84-5.1-3.84s-3.94,1.28-5.1,3.84c-1.16,2.56-1.74,6.92-1.74,13.08s.58,10.52,1.74,13.08c1.16,2.56,2.86,3.84,5.1,3.84s3.94-1.28,5.1-3.84Z" fill="#5a3e2b"/><path d="M387.17,188.29c0,3.28.58,5.54,1.74,6.78,1.16,1.24,3.14,1.86,5.94,1.86v2.52c-8-.32-13.32-.48-15.96-.48-2.48,0-8.04.16-16.68.48v-2.52c2.88,0,4.88-.62,6-1.86,1.12-1.24,1.68-3.5,1.68-6.78v-37.8c0-3.68-.56-6.36-1.68-8.04-1.12-1.68-3.12-2.52-6-2.52v-2.52c2.56.24,5.04.36,7.44.36,7.12,0,12.96-.56,17.52-1.68v52.2ZM385.79,108.91c1.96,1.64,2.94,3.9,2.94,6.78s-.98,5.14-2.94,6.78c-1.96,1.64-4.62,2.46-7.98,2.46s-6.02-.82-7.98-2.46c-1.96-1.64-2.94-3.9-2.94-6.78s.98-5.14,2.94-6.78c1.96-1.64,4.62-2.46,7.98-2.46s6.02.82,7.98,2.46Z" fill="#5a3e2b"/><path d="M435.29,136.87c2.56.76,4.52,1.62,5.88,2.58.8.56,1.52.84,2.16.84.72,0,1.34-.38,1.86-1.14.52-.76.86-1.86,1.02-3.3h2.52c-.32,4.08-.48,11.12-.48,21.12h-2.52c-.72-5.28-2.3-9.7-4.74-13.26-2.44-3.56-5.98-5.34-10.62-5.34-2.4,0-4.38.68-5.94,2.04-1.56,1.36-2.34,3.24-2.34,5.64,0,2.72.92,5.06,2.76,7.02,1.84,1.96,4.72,4.34,8.64,7.14l3.48,2.52c4.88,3.68,8.48,6.96,10.8,9.84s3.48,6.48,3.48,10.8c0,3.52-1.02,6.64-3.06,9.36-2.04,2.72-4.78,4.8-8.22,6.24-3.44,1.44-7.24,2.16-11.4,2.16-4.4,0-8.16-.84-11.28-2.52-2.56-1.28-4.4-2.12-5.52-2.52-.8-.24-1.5.02-2.1.78-.6.76-1.06,1.9-1.38,3.42h-2.52c.32-4.56.48-12.56.48-24h2.52c1.6,14.72,7,22.08,16.2,22.08,2.32,0,4.3-.7,5.94-2.1,1.64-1.4,2.46-3.54,2.46-6.42,0-2.24-.5-4.24-1.5-6-1-1.76-2.26-3.32-3.78-4.68-1.52-1.36-3.8-3.24-6.84-5.64-3.6-2.88-6.34-5.2-8.22-6.96-1.88-1.76-3.48-3.84-4.8-6.24-1.32-2.4-1.98-5.08-1.98-8.04,0-5.12,2-9.16,6-12.12,4-2.96,8.88-4.44,14.64-4.44,3.04,0,5.84.38,8.4,1.14Z" fill="#5a3e2b"/><path d="M486.05,137.41h14.16v2.4h-14.16v48.48c0,2.4.42,4.1,1.26,5.1.84,1,2.18,1.5,4.02,1.5,3.44,0,6.16-2.4,8.16-7.2l2.04,1.08c-3.04,8.24-8.52,12.36-16.44,12.36-5.28,0-9.28-1.36-12-4.08-1.68-1.68-2.82-3.78-3.42-6.3-.6-2.52-.9-5.98-.9-10.38v-40.56h-10.08v-2.4h10.08v-15.84c6.64,0,12.4-1.28,17.28-3.84v19.68Z" fill="#5a3e2b"/><path d="M574.85,199.45c-5.44-.24-14.6-.36-27.48-.36-17.44,0-30.48.12-39.12.36v-2.4c2.64-.16,4.58-.48,5.82-.96,1.24-.48,2.08-1.4,2.52-2.76.44-1.36.66-3.56.66-6.6v-59.52c0-3.04-.22-5.24-.66-6.6-.44-1.36-1.28-2.28-2.52-2.76-1.24-.48-3.18-.8-5.82-.96v-2.4c8.64.24,21.68.36,39.12.36,11.76,0,20.12-.12,25.08-.36-.56,6.64-.84,12.56-.84,17.76,0,3.52.12,6.24.36,8.16h-2.76c-1.2-8.56-3.36-14.56-6.48-18-3.12-3.44-7.52-5.16-13.2-5.16h-4.92c-2.48,0-4.28.2-5.4.6-1.12.4-1.88,1.18-2.28,2.34-.4,1.16-.6,3.02-.6,5.58v29.76h3.84c4.24,0,7.46-1.56,9.66-4.68,2.2-3.12,3.74-6.84,4.62-11.16h2.76c-.24,3.36-.36,7.12-.36,11.28v5.76c0,4.08.24,9.76.72,17.04h-2.76c-1.68-10.56-6.56-15.84-14.64-15.84h-3.84v30.24c0,2.56.2,4.42.6,5.58.4,1.16,1.16,1.94,2.28,2.34,1.12.4,2.92.6,5.4.6h5.88c5.68,0,10.26-1.94,13.74-5.82,3.48-3.88,5.94-10.46,7.38-19.74h2.76c-.24,2.64-.36,6-.36,10.08,0,7.36.28,13.44.84,18.24Z" fill="#5a3e2b"/><path d="M590.63,196.33c-2.52-2.64-3.78-6.12-3.78-10.44,0-3.6.94-6.58,2.82-8.94,1.88-2.36,4.16-4.18,6.84-5.46,2.68-1.28,6.1-2.64,10.26-4.08,4.4-1.52,7.62-2.9,9.66-4.14,2.04-1.24,3.06-2.94,3.06-5.1v-9.36c0-3.36-.78-5.98-2.34-7.86-1.56-1.88-3.98-2.82-7.26-2.82-3.84,0-6.76.96-8.76,2.88,2.24.8,3.98,2,5.22,3.6,1.24,1.6,1.86,3.48,1.86,5.64,0,2.72-.92,4.88-2.76,6.48-1.84,1.6-4.08,2.4-6.72,2.4-2.8,0-4.96-.88-6.48-2.64-1.52-1.76-2.28-3.96-2.28-6.6,0-2.24.54-4.14,1.62-5.7,1.08-1.56,2.74-3.02,4.98-4.38,2.16-1.28,4.82-2.28,7.98-3,3.16-.72,6.62-1.08,10.38-1.08s7.32.4,10.2,1.2c2.88.8,5.28,2.16,7.2,4.08,1.76,1.76,2.94,3.92,3.54,6.48.6,2.56.9,6.04.9,10.44v32.64c0,1.92.18,3.28.54,4.08.36.8,1.06,1.2,2.1,1.2,1.2,0,2.64-.68,4.32-2.04l1.2,2.04c-3.6,2.96-8,4.44-13.2,4.44-4.4,0-7.48-.88-9.24-2.64-1.76-1.76-2.68-4.12-2.76-7.08-4,6.48-9.88,9.72-17.64,9.72-5.12,0-8.94-1.32-11.46-3.96ZM619.49,187.69v-24.6c-.96,1.6-3,3.36-6.12,5.28-3.12,2-5.48,4-7.08,6-1.6,2-2.4,4.88-2.4,8.64,0,3.28.68,5.7,2.04,7.26,1.36,1.56,3.16,2.34,5.4,2.34,3.12,0,5.84-1.64,8.16-4.92Z" fill="#5a3e2b"/><path d="M683.69,136.87c2.56.76,4.52,1.62,5.88,2.58.8.56,1.52.84,2.16.84.72,0,1.34-.38,1.86-1.14.52-.76.86-1.86,1.02-3.3h2.52c-.32,4.08-.48,11.12-.48,21.12h-2.52c-.72-5.28-2.3-9.7-4.74-13.26-2.44-3.56-5.98-5.34-10.62-5.34-2.4,0-4.38.68-5.94,2.04-1.56,1.36-2.34,3.24-2.34,5.64,0,2.72.92,5.06,2.76,7.02,1.84,1.96,4.72,4.34,8.64,7.14l3.48,2.52c4.88,3.68,8.48,6.96,10.8,9.84s3.48,6.48,3.48,10.8c0,3.52-1.02,6.64-3.06,9.36-2.04,2.72-4.78,4.8-8.22,6.24-3.44,1.44-7.24,2.16-11.4,2.16-4.4,0-8.16-.84-11.28-2.52-2.56-1.28-4.4-2.12-5.52-2.52-.8-.24-1.5.02-2.1.78-.6.76-1.06,1.9-1.38,3.42h-2.52c.32-4.56.48-12.56.48-24h2.52c1.6,14.72,7,22.08,16.2,22.08,2.32,0,4.3-.7,5.94-2.1,1.64-1.4,2.46-3.54,2.46-6.42,0-2.24-.5-4.24-1.5-6-1-1.76-2.26-3.32-3.78-4.68-1.52-1.36-3.8-3.24-6.84-5.64-3.6-2.88-6.34-5.2-8.22-6.96-1.88-1.76-3.48-3.84-4.8-6.24-1.32-2.4-1.98-5.08-1.98-8.04,0-5.12,2-9.16,6-12.12,4-2.96,8.88-4.44,14.64-4.44,3.04,0,5.84.38,8.4,1.14Z" fill="#5a3e2b"/><path d="M761.2,181.69l2.16.72c-1.6,5.2-4.46,9.62-8.58,13.26-4.12,3.64-9.26,5.46-15.42,5.46-8.48,0-15.22-2.7-20.22-8.1-5-5.4-7.5-13.38-7.5-23.94s2.68-19.06,8.04-24.78c5.36-5.72,12.48-8.58,21.36-8.58,15.04,0,22.56,8.88,22.56,26.64h-33.72c-.08,1.2-.12,3.08-.12,5.64,0,5.28.74,9.68,2.22,13.2,1.48,3.52,3.4,6.08,5.76,7.68,2.36,1.6,4.9,2.4,7.62,2.4,6.56,0,11.84-3.2,15.84-9.6ZM733.18,143.59c-1.88,3.56-3.06,9.06-3.54,16.5h18.84c.16-6.32-.46-11.54-1.86-15.66-1.4-4.12-3.5-6.18-6.3-6.18s-5.26,1.78-7.14,5.34Z" fill="#5a3e2b"/><path d="M352.72,212.73c.28-.56.63-1.04,1.05-1.43.42-.39.86-.58,1.31-.58.68,0,1.01.29,1.01.86,0,.23-.06.39-.17.48-.11.09-.26.17-.43.22s-.3.1-.39.13c-.49.28-.73.67-.73,1.17,0,.19.07.35.22.48.15.13.34.19.58.19.29,0,.54-.06.73-.18.17.09.3.2.39.33.09.13.12.3.1.51,0,.43-.22.81-.66,1.13-.44.32-.91.48-1.39.48-.62,0-1.12-.2-1.5-.6-.37-.4-.56-.96-.56-1.69,0-.43.14-.93.42-1.5ZM357.82,212.73c.28-.56.63-1.04,1.05-1.43.42-.39.86-.58,1.31-.58.68,0,1.01.29,1.01.86,0,.23-.06.39-.17.48-.11.09-.26.17-.43.22-.17.05-.3.1-.39.13-.49.28-.73.67-.73,1.17,0,.19.07.35.22.48s.34.19.58.19c.29,0,.54-.06.73-.18.17.09.3.2.39.33.09.13.12.3.1.51,0,.43-.22.81-.66,1.13-.44.32-.91.48-1.39.48-.62,0-1.12-.2-1.5-.6-.37-.4-.56-.96-.56-1.69,0-.43.14-.93.42-1.5Z" fill="#d2691e"/><path d="M367.64,228.67c-.97-.35-1.9-.93-2.78-1.73-.36-.31-.55-.67-.55-1.07,0-.31.12-.59.36-.84.24-.25.53-.38.86-.38.29,0,.55.1.75.29.69.64,1.41,1.11,2.15,1.42.74.3,1.57.46,2.51.46,1.09,0,2.01-.25,2.77-.75s1.13-1.14,1.13-1.9c-.02-.9-.39-1.6-1.13-2.09s-1.86-.91-3.37-1.24c-1.79-.36-3.16-.96-4.12-1.79-.96-.83-1.44-1.98-1.44-3.46,0-1.02.27-1.92.81-2.69s1.28-1.37,2.24-1.78,2.03-.62,3.22-.62c1.08,0,2.09.17,3.04.52.95.35,1.72.81,2.31,1.38.4.35.6.72.6,1.12,0,.31-.12.59-.35.83-.23.24-.52.36-.84.36-.24,0-.44-.07-.6-.21-.45-.45-1.08-.83-1.87-1.14-.8-.31-1.56-.47-2.29-.47-1.16,0-2.08.24-2.77.72-.69.48-1.03,1.1-1.03,1.88,0,.85.34,1.5,1.03,1.95.68.45,1.7.83,3.05,1.14,1.35.29,2.46.64,3.32,1.04.86.4,1.52.95,1.99,1.66.47.71.7,1.64.7,2.78,0,1-.28,1.9-.84,2.68s-1.33,1.39-2.3,1.82c-.97.43-2.04.65-3.2.65-1.27,0-2.38-.18-3.35-.53Z" fill="#d2691e"/><path d="M381.18,213.2c-.22-.18-.33-.47-.33-.87v-.42c0-.42.12-.71.35-.88.23-.17.59-.26,1.08-.26s.84.09,1.05.27c.22.18.33.47.33.87v.42c0,.42-.11.71-.34.88-.23.17-.58.26-1.07.26s-.86-.09-1.08-.27ZM383.15,228.58c-.23.24-.53.36-.9.36s-.64-.12-.87-.36c-.23-.24-.35-.54-.35-.88v-11.26c0-.35.12-.64.35-.88.23-.24.52-.36.87-.36s.66.12.9.36c.23.24.35.54.35.88v11.26c0,.35-.12.64-.35.88Z" fill="#d2691e"/><path d="M408.1,220.75v6.94c0,.36-.11.66-.34.9-.22.23-.52.35-.88.35s-.66-.12-.9-.36c-.23-.24-.35-.54-.35-.88v-6.92c0-2.27-.95-3.41-2.86-3.41-.68,0-1.29.15-1.83.46-.55.3-.97.71-1.27,1.24-.3.52-.46,1.09-.46,1.72v6.92c0,.35-.12.64-.35.88-.23.24-.53.36-.9.36s-.66-.12-.88-.35c-.23-.23-.34-.53-.34-.9v-6.94c0-1.02-.22-1.84-.65-2.46-.43-.61-1.15-.92-2.16-.92s-1.87.33-2.53.98c-.67.65-1,1.45-1,2.4v6.94c0,.35-.12.64-.35.88-.23.24-.53.36-.9.36s-.66-.12-.88-.35c-.22-.23-.34-.53-.34-.9v-11.13c0-.35.12-.64.35-.88.23-.24.52-.36.87-.36s.66.12.9.36c.23.24.35.54.35.88v.91c.45-.68,1.05-1.24,1.81-1.7s1.57-.69,2.46-.69c2.15,0,3.54.95,4.19,2.86.38-.73,1.01-1.39,1.9-1.98.88-.59,1.82-.88,2.81-.88,3.03,0,4.55,1.89,4.55,5.67Z" fill="#d2691e"/><path d="M422.68,215.98c.95.6,1.7,1.43,2.25,2.51.55,1.08.82,2.29.82,3.64s-.27,2.56-.82,3.63c-.55,1.07-1.3,1.9-2.25,2.51s-2,.91-3.15.91c-.9,0-1.74-.2-2.52-.6s-1.41-.88-1.9-1.46v5.77c0,.35-.12.64-.35.88-.23.24-.53.36-.9.36s-.64-.12-.87-.35c-.23-.23-.35-.53-.35-.9v-16.35c0-.36.11-.67.34-.91.23-.24.52-.36.88-.36s.66.12.9.36c.23.24.35.55.35.91v.75c.42-.61,1.02-1.13,1.82-1.56.8-.43,1.65-.65,2.55-.65,1.18,0,2.25.3,3.2.9ZM421.36,226.26c.64-.42,1.14-.98,1.5-1.7.36-.72.53-1.53.53-2.43s-.18-1.71-.53-2.43c-.36-.72-.85-1.29-1.5-1.7s-1.36-.62-2.16-.62-1.54.2-2.18.61-1.14.97-1.5,1.7c-.36.73-.53,1.54-.53,2.44s.18,1.72.53,2.44c.36.73.85,1.3,1.5,1.7s1.37.61,2.18.61,1.52-.21,2.16-.62Z" fill="#d2691e"/><path d="M431.78,228.58c-.24.24-.54.36-.88.36s-.64-.12-.87-.36c-.23-.24-.35-.54-.35-.88v-16.74c0-.35.12-.64.36-.88s.54-.36.88-.36.64.12.87.36c.23.24.35.54.35.88v16.74c0,.35-.12.64-.36.88Z" fill="#d2691e"/><path d="M436.92,213.2c-.22-.18-.33-.47-.33-.87v-.42c0-.42.12-.71.35-.88.23-.17.59-.26,1.08-.26s.84.09,1.05.27c.22.18.33.47.33.87v.42c0,.42-.11.71-.34.88-.23.17-.58.26-1.07.26s-.86-.09-1.08-.27ZM438.9,228.58c-.23.24-.53.36-.9.36s-.64-.12-.87-.36c-.23-.24-.35-.54-.35-.88v-11.26c0-.35.12-.64.35-.88.23-.24.52-.36.87-.36s.66.12.9.36c.23.24.35.54.35.88v11.26c0,.35-.12.64-.35.88Z" fill="#d2691e"/><path d="M448.23,212.46c-.27.35-.4.77-.4,1.27v1.82h2.57c.35,0,.63.11.84.32.22.22.33.49.33.82s-.11.6-.33.81-.5.31-.84.31h-2.57v9.88c0,.35-.12.64-.35.88-.23.24-.53.36-.9.36s-.64-.12-.87-.36c-.23-.24-.35-.54-.35-.88v-9.88h-1.61c-.33,0-.61-.1-.83-.31s-.34-.48-.34-.81.11-.6.34-.82c.23-.22.5-.32.83-.32h1.61v-1.82c0-1.21.39-2.18,1.17-2.9.78-.72,1.88-1.08,3.3-1.08.59,0,1.11.11,1.56.33.45.22.68.54.68.98,0,.33-.1.6-.3.82-.2.22-.44.33-.71.33-.07,0-.26-.03-.57-.1-.38-.1-.71-.16-.99-.16-.57,0-.99.17-1.26.52Z" fill="#d2691e"/><path d="M465.7,215.55c.23.24.35.54.35.88v11.23c0,2.17-.6,3.79-1.79,4.86-1.2,1.07-2.77,1.61-4.73,1.61-.64,0-1.27-.06-1.9-.18s-1.13-.29-1.53-.49c-.64-.29-.96-.69-.96-1.2,0-.09.02-.2.05-.34.1-.29.25-.52.44-.68.19-.16.41-.23.65-.23.14,0,.27.03.39.08.54.24,1.01.43,1.43.57.42.14.9.21,1.46.21,2.69,0,4.03-1.38,4.03-4.13v-.52c-.47.62-1.07,1.11-1.81,1.46-.74.35-1.58.52-2.54.52-1.44,0-2.56-.46-3.37-1.38-.81-.92-1.21-2.12-1.21-3.61v-7.77c0-.36.11-.66.34-.9.23-.23.52-.35.88-.35s.66.12.9.36c.23.24.35.54.35.88v7.12c0,1.14.25,1.99.75,2.54.5.55,1.26.82,2.29.82s1.8-.31,2.44-.94.96-1.43.96-2.42v-7.12c0-.36.11-.66.34-.9.23-.23.52-.35.88-.35s.66.12.9.36Z" fill="#d2691e"/><path d="M493.01,227.82c0,.35-.12.63-.35.86s-.51.34-.82.34c-.24,0-.46-.07-.66-.22-.2-.15-.36-.35-.48-.61l-1.61-3.82h-8.03l-1.59,3.85c-.09.26-.23.46-.43.6s-.42.21-.66.21c-.36,0-.64-.09-.83-.29-.19-.19-.29-.45-.29-.78,0-.07.02-.21.05-.42l6.63-16.07c.12-.28.29-.49.51-.64.22-.15.46-.2.74-.17.26,0,.49.07.7.21.21.14.36.34.44.6l6.6,15.86c.05.16.08.32.08.49ZM482.04,222h6.06l-3.04-7.28-3.02,7.28Z" fill="#d2691e"/><path d="M508.47,215.49c.23.23.35.54.35.92v11.44c0,1.4-.3,2.58-.9,3.52-.6.95-1.41,1.64-2.43,2.09-1.02.45-2.18.68-3.46.68-.69,0-1.5-.12-2.43-.36-.93-.24-1.52-.49-1.78-.75-.54-.28-.81-.62-.81-1.04,0-.1.04-.24.1-.42.19-.43.51-.65.96-.65.22,0,.47.05.73.16,1.39.54,2.47.81,3.25.81,1.39,0,2.45-.33,3.19-1,.74-.67,1.1-1.58,1.1-2.74v-1.4c-.36.68-.97,1.26-1.83,1.74-.86.48-1.76.73-2.72.73-1.2,0-2.29-.3-3.28-.91-.99-.61-1.76-1.45-2.33-2.53-.56-1.08-.85-2.3-.85-3.65s.28-2.57.85-3.65c.56-1.08,1.33-1.93,2.31-2.54.98-.61,2.06-.91,3.24-.91.95,0,1.84.22,2.67.65.82.43,1.47.96,1.94,1.59v-.83c0-.36.11-.67.34-.91.23-.24.52-.36.88-.36s.66.12.9.35ZM504.35,226.3c.66-.41,1.17-.98,1.55-1.72.37-.74.56-1.56.56-2.48s-.19-1.74-.56-2.47c-.37-.73-.89-1.3-1.55-1.72s-1.41-.62-2.26-.62-1.58.21-2.24.62c-.66.42-1.17.99-1.55,1.73-.37.74-.56,1.56-.56,2.46s.19,1.72.56,2.46.89,1.31,1.55,1.73c.66.42,1.4.62,2.24.62s1.6-.2,2.26-.61Z" fill="#d2691e"/><path d="M513.36,213.2c-.22-.18-.33-.47-.33-.87v-.42c0-.42.12-.71.35-.88.23-.17.59-.26,1.08-.26s.84.09,1.05.27c.22.18.33.47.33.87v.42c0,.42-.11.71-.34.88-.23.17-.58.26-1.07.26s-.86-.09-1.08-.27ZM515.33,228.58c-.23.24-.53.36-.9.36s-.64-.12-.87-.36c-.23-.24-.35-.54-.35-.88v-11.26c0-.35.12-.64.35-.88.23-.24.52-.36.87-.36s.66.12.9.36c.23.24.35.54.35.88v11.26c0,.35-.12.64-.35.88Z" fill="#d2691e"/><path d="M519.09,226.11c0-.35.18-.64.55-.88.17-.12.37-.18.6-.18.31,0,.6.13.86.39.52.59,1.08,1.03,1.68,1.33.6.29,1.31.44,2.15.44.66-.02,1.24-.17,1.74-.46.5-.29.75-.75.75-1.39,0-.59-.26-1.04-.77-1.35-.51-.31-1.26-.6-2.25-.86-.97-.26-1.78-.53-2.42-.82s-1.18-.7-1.62-1.25c-.44-.55-.66-1.26-.66-2.14,0-.78.22-1.46.66-2.05.44-.59,1.03-1.05,1.77-1.38.74-.33,1.54-.49,2.4-.49s1.66.16,2.48.47c.82.31,1.5.79,2.01,1.43.21.24.31.49.31.75,0,.28-.14.55-.42.81-.17.16-.39.23-.65.23-.31,0-.56-.1-.75-.31-.36-.42-.81-.74-1.34-.96-.53-.23-1.11-.34-1.75-.34s-1.22.13-1.68.4c-.46.27-.69.72-.69,1.37.02.61.28,1.06.79,1.35.51.29,1.3.58,2.35.86.92.24,1.68.5,2.29.78.61.28,1.12.69,1.53,1.23s.62,1.26.62,2.15c0,.81-.23,1.52-.7,2.12-.47.6-1.08,1.06-1.83,1.38-.75.32-1.56.48-2.4.48-1.09,0-2.1-.19-3.03-.57-.93-.38-1.71-.99-2.35-1.82-.16-.24-.23-.48-.23-.7Z" fill="#d2691e"/><path d="M537.06,217.74v7.75c0,.87.39,1.3,1.17,1.3.12,0,.29-.03.49-.09s.37-.09.49-.09c.22,0,.42.1.57.29.16.19.23.43.23.73,0,.36-.21.68-.62.94-.42.26-.88.39-1.4.39-.57,0-1.1-.06-1.57-.18-.48-.12-.9-.43-1.27-.92-.37-.49-.56-1.24-.56-2.25v-7.85h-1.51c-.33,0-.6-.11-.82-.33-.22-.22-.33-.49-.33-.82s.11-.6.33-.81.49-.31.82-.31h1.51v-2.18c0-.35.12-.64.35-.88.23-.24.53-.36.9-.36s.64.12.87.36c.23.24.35.54.35.88v2.18h2.16c.33,0,.6.11.82.33s.33.49.33.82-.11.6-.33.81-.49.31-.82.31h-2.16Z" fill="#d2691e"/><path d="M564.28,220.75v6.94c0,.36-.11.66-.34.9-.22.23-.52.35-.88.35s-.66-.12-.9-.36c-.23-.24-.35-.54-.35-.88v-6.92c0-2.27-.95-3.41-2.86-3.41-.68,0-1.29.15-1.83.46-.55.3-.97.71-1.27,1.24-.3.52-.46,1.09-.46,1.72v6.92c0,.35-.12.64-.35.88-.23.24-.53.36-.9.36s-.66-.12-.88-.35c-.23-.23-.34-.53-.34-.9v-6.94c0-1.02-.22-1.84-.65-2.46-.43-.61-1.15-.92-2.16-.92s-1.87.33-2.53.98c-.67.65-1,1.45-1,2.4v6.94c0,.35-.12.64-.35.88-.23.24-.53.36-.9.36s-.66-.12-.88-.35c-.22-.23-.34-.53-.34-.9v-11.13c0-.35.12-.64.35-.88.23-.24.52-.36.87-.36s.66.12.9.36c.23.24.35.54.35.88v.91c.45-.68,1.05-1.24,1.81-1.7s1.57-.69,2.46-.69c2.15,0,3.54.95,4.19,2.86.38-.73,1.01-1.39,1.9-1.98.88-.59,1.82-.88,2.81-.88,3.03,0,4.55,1.89,4.55,5.67Z" fill="#d2691e"/><path d="M580.4,222.4c-.24.22-.53.33-.86.33h-9.15c.12,1.27.6,2.28,1.44,3.04s1.87,1.14,3.08,1.14c.83,0,1.51-.12,2.03-.36.52-.24.98-.55,1.38-.94.26-.16.51-.23.75-.23.29,0,.54.1.74.31s.3.45.3.73c0,.36-.17.69-.52.99-.5.5-1.17.93-2,1.27s-1.68.52-2.55.52c-1.4,0-2.64-.29-3.7-.88-1.07-.59-1.89-1.41-2.47-2.47s-.87-2.25-.87-3.59c0-1.46.3-2.73.9-3.83s1.39-1.95,2.37-2.54c.98-.59,2.03-.88,3.16-.88s2.15.29,3.12.86,1.75,1.36,2.34,2.37c.59,1.01.89,2.13.91,3.38-.02.31-.15.58-.39.79ZM571.9,218.11c-.71.55-1.18,1.39-1.4,2.54h7.67v-.21c-.09-.92-.5-1.67-1.23-2.26-.74-.59-1.57-.88-2.51-.88s-1.81.27-2.52.82Z" fill="#d2691e"/><path d="M596.13,220.62v7.07c0,.35-.12.64-.35.88-.23.24-.53.36-.9.36s-.64-.12-.87-.36c-.23-.24-.35-.54-.35-.88v-7.05c0-1.02-.23-1.84-.7-2.44-.47-.61-1.23-.91-2.29-.91-.69,0-1.32.15-1.88.46-.56.3-1.01.71-1.33,1.22-.32.51-.48,1.07-.48,1.68v7.05c0,.35-.12.64-.35.88-.23.24-.53.36-.9.36s-.66-.12-.88-.35c-.22-.23-.34-.53-.34-.9v-11.13c0-.35.12-.64.35-.88.23-.24.52-.36.87-.36s.66.12.9.36c.23.24.35.54.35.88v.91c.45-.69,1.08-1.28,1.88-1.75.81-.48,1.67-.71,2.59-.71,3.12,0,4.68,1.87,4.68,5.62Z" fill="#d2691e"/><path d="M604.37,217.74v7.75c0,.87.39,1.3,1.17,1.3.12,0,.29-.03.49-.09s.37-.09.49-.09c.22,0,.42.1.57.29.16.19.23.43.23.73,0,.36-.21.68-.62.94-.42.26-.88.39-1.4.39-.57,0-1.1-.06-1.57-.18-.48-.12-.9-.43-1.27-.92-.37-.49-.56-1.24-.56-2.25v-7.85h-1.51c-.33,0-.6-.11-.82-.33-.22-.22-.33-.49-.33-.82s.11-.6.33-.81.49-.31.82-.31h1.51v-2.18c0-.35.12-.64.35-.88.23-.24.53-.36.9-.36s.64.12.87.36c.23.24.35.54.35.88v2.18h2.16c.33,0,.6.11.82.33s.33.49.33.82-.11.6-.33.81-.49.31-.82.31h-2.16Z" fill="#d2691e"/><path d="M611.35,228.58c-.22-.22-.33-.55-.33-.99v-.49c0-.42.11-.74.33-.96.22-.23.53-.34.95-.34h.26c.43,0,.76.11.97.34.22.22.33.55.33.96v.49c0,.88-.43,1.33-1.3,1.33h-.26c-.42,0-.73-.11-.95-.34Z" fill="#d2691e"/><path d="M637.58,226.91c.23.24.35.53.35.86,0,.35-.12.63-.35.84-.23.22-.53.33-.9.33h-9.05c-.35,0-.64-.12-.88-.36-.24-.24-.36-.54-.36-.88v-15.7c0-.35.12-.64.36-.88s.54-.36.88-.36h9.05c.36,0,.66.11.9.34.23.23.35.52.35.88s-.12.63-.35.84c-.23.22-.53.33-.9.33h-7.72v5.3h6.55c.36,0,.66.11.9.34.23.23.35.51.35.86s-.12.65-.35.86c-.23.21-.53.31-.9.31h-6.55v5.75h7.72c.36,0,.66.12.9.36Z" fill="#d2691e"/><path d="M653.38,220.62v7.07c0,.35-.12.64-.35.88-.23.24-.53.36-.9.36s-.64-.12-.87-.36c-.23-.24-.35-.54-.35-.88v-7.05c0-1.02-.23-1.84-.7-2.44-.47-.61-1.23-.91-2.29-.91-.69,0-1.32.15-1.88.46-.56.3-1.01.71-1.33,1.22-.32.51-.48,1.07-.48,1.68v7.05c0,.35-.12.64-.35.88-.23.24-.53.36-.9.36s-.66-.12-.88-.35c-.22-.23-.34-.53-.34-.9v-11.13c0-.35.12-.64.35-.88.23-.24.52-.36.87-.36s.66.12.9.36c.23.24.35.54.35.88v.91c.45-.69,1.08-1.28,1.88-1.75.81-.48,1.67-.71,2.59-.71,3.12,0,4.68,1.87,4.68,5.62Z" fill="#d2691e"/><path d="M669.29,220.75v6.94c0,.35-.12.64-.35.88-.23.24-.53.36-.9.36s-.64-.12-.87-.36c-.23-.24-.35-.54-.35-.88v-6.94c0-2.25-.95-3.38-2.86-3.38-1.02,0-1.87.33-2.55.98-.68.65-1.01,1.45-1.01,2.4v6.94c0,.35-.12.64-.35.88-.23.24-.53.36-.9.36s-.66-.12-.88-.35c-.22-.23-.34-.53-.34-.9v-16.74c0-.35.12-.64.35-.88.23-.24.52-.36.87-.36s.66.12.9.36c.23.24.35.54.35.88v6.58c.43-.68,1.04-1.25,1.82-1.73.78-.48,1.61-.72,2.5-.72,3.05,0,4.58,1.89,4.58,5.67Z" fill="#d2691e"/><path d="M685.79,215.49c.23.23.35.54.35.92v11.28c0,.35-.12.64-.35.88-.23.24-.53.36-.9.36s-.66-.12-.88-.35c-.23-.23-.34-.53-.34-.9v-.68c-.45.61-1.07,1.12-1.85,1.55s-1.62.64-2.52.64c-1.18,0-2.25-.3-3.21-.91-.96-.61-1.72-1.45-2.26-2.53s-.82-2.3-.82-3.65.27-2.57.82-3.65c.55-1.08,1.3-1.93,2.25-2.54.95-.61,2-.91,3.15-.91.92,0,1.77.19,2.56.57.79.38,1.42.87,1.88,1.46v-.62c0-.36.11-.67.34-.91.23-.24.52-.36.88-.36s.66.12.9.35ZM681.76,226.29c.63-.42,1.13-.99,1.48-1.72.35-.73.53-1.55.53-2.47s-.18-1.72-.53-2.44c-.36-.73-.85-1.3-1.48-1.73s-1.36-.64-2.17-.64-1.54.21-2.17.62-1.13.99-1.48,1.72c-.36.73-.53,1.55-.53,2.47s.18,1.74.53,2.47c.35.73.85,1.3,1.48,1.72s1.36.62,2.17.62,1.54-.21,2.17-.62Z" fill="#d2691e"/><path d="M702.28,220.62v7.07c0,.35-.12.64-.35.88-.23.24-.53.36-.9.36s-.64-.12-.87-.36c-.23-.24-.35-.54-.35-.88v-7.05c0-1.02-.23-1.84-.7-2.44-.47-.61-1.23-.91-2.29-.91-.69,0-1.32.15-1.88.46-.56.3-1.01.71-1.33,1.22-.32.51-.48,1.07-.48,1.68v7.05c0,.35-.12.64-.35.88-.23.24-.53.36-.9.36s-.66-.12-.88-.35c-.22-.23-.34-.53-.34-.9v-11.13c0-.35.12-.64.35-.88.23-.24.52-.36.87-.36s.66.12.9.36c.23.24.35.54.35.88v.91c.45-.69,1.08-1.28,1.88-1.75.81-.48,1.67-.71,2.59-.71,3.12,0,4.68,1.87,4.68,5.62Z" fill="#d2691e"/><path d="M716.18,215.66c.91.43,1.36.99,1.36,1.66,0,.29-.09.56-.29.79-.19.23-.43.35-.73.35-.23,0-.4-.04-.53-.1s-.31-.18-.53-.34c-.1-.1-.27-.23-.49-.36-.21-.1-.5-.19-.88-.26-.38-.07-.73-.1-1.04-.1-.9,0-1.7.21-2.39.62s-1.23.99-1.61,1.73c-.38.74-.57,1.56-.57,2.46s.19,1.74.56,2.47c.37.73.9,1.3,1.57,1.72s1.45.62,2.31.62,1.63-.14,2.18-.42c.12-.07.29-.18.49-.34.17-.14.32-.24.46-.31.13-.07.29-.1.48-.1.35,0,.62.11.82.33.2.22.3.5.3.84,0,.36-.23.72-.69,1.08-.46.36-1.07.65-1.85.87-.77.23-1.6.34-2.48.34-1.32,0-2.48-.31-3.48-.92-1.01-.62-1.78-1.46-2.33-2.55s-.82-2.29-.82-3.63.29-2.54.86-3.63,1.37-1.93,2.39-2.55,2.19-.92,3.51-.92,2.51.22,3.42.65Z" fill="#d2691e"/><path d="M732.63,222.4c-.24.22-.53.33-.86.33h-9.15c.12,1.27.6,2.28,1.44,3.04s1.87,1.14,3.08,1.14c.83,0,1.51-.12,2.03-.36.52-.24.98-.55,1.38-.94.26-.16.51-.23.75-.23.29,0,.54.1.74.31s.3.45.3.73c0,.36-.17.69-.52.99-.5.5-1.17.93-2,1.27s-1.68.52-2.55.52c-1.4,0-2.64-.29-3.7-.88-1.07-.59-1.89-1.41-2.47-2.47s-.87-2.25-.87-3.59c0-1.46.3-2.73.9-3.83s1.39-1.95,2.37-2.54c.98-.59,2.03-.88,3.16-.88s2.15.29,3.12.86,1.75,1.36,2.34,2.37c.59,1.01.89,2.13.91,3.38-.02.31-.15.58-.39.79ZM724.12,218.11c-.71.55-1.18,1.39-1.4,2.54h7.67v-.21c-.09-.92-.5-1.67-1.23-2.26-.74-.59-1.57-.88-2.51-.88s-1.81.27-2.52.82Z" fill="#d2691e"/><path d="M758.7,212.85c0,.31-.1.6-.31.86-.21.28-.49.42-.86.42-.24,0-.48-.06-.7-.18-1.08-.61-2.24-.91-3.48-.91s-2.45.29-3.45.86c-1,.57-1.77,1.37-2.33,2.4-.55,1.03-.83,2.21-.83,3.55,0,1.44.29,2.68.86,3.72.57,1.04,1.36,1.83,2.37,2.38,1.01.55,2.13.82,3.38.82s2.44-.31,3.48-.94c.21-.1.43-.16.68-.16.38,0,.68.15.91.44.21.26.31.54.31.83,0,.21-.06.4-.17.58-.11.18-.26.33-.46.43-.68.38-1.43.69-2.28.91-.84.23-1.67.34-2.48.34-1.68,0-3.23-.37-4.64-1.12-1.41-.75-2.54-1.83-3.38-3.25-.84-1.42-1.26-3.08-1.26-4.99,0-1.75.4-3.33,1.21-4.75s1.92-2.52,3.33-3.33c1.41-.81,2.99-1.21,4.75-1.21s3.26.42,4.73,1.25c.42.23.62.57.62,1.04Z" fill="#d2691e"/><path d="M774.19,215.49c.23.23.35.54.35.92v11.28c0,.35-.12.64-.35.88-.23.24-.53.36-.9.36s-.66-.12-.88-.35c-.23-.23-.34-.53-.34-.9v-.68c-.45.61-1.07,1.12-1.85,1.55s-1.62.64-2.52.64c-1.18,0-2.25-.3-3.21-.91-.96-.61-1.72-1.45-2.26-2.53s-.82-2.3-.82-3.65.27-2.57.82-3.65c.55-1.08,1.3-1.93,2.25-2.54.95-.61,2-.91,3.15-.91.92,0,1.77.19,2.56.57.79.38,1.42.87,1.88,1.46v-.62c0-.36.11-.67.34-.91.23-.24.52-.36.88-.36s.66.12.9.35ZM770.16,226.29c.63-.42,1.13-.99,1.48-1.72.35-.73.53-1.55.53-2.47s-.18-1.72-.53-2.44c-.36-.73-.85-1.3-1.48-1.73s-1.36-.64-2.17-.64-1.54.21-2.17.62-1.13.99-1.48,1.72c-.36.73-.53,1.55-.53,2.47s.18,1.74.53,2.47c.35.73.85,1.3,1.48,1.72s1.36.62,2.17.62,1.54-.21,2.17-.62Z" fill="#d2691e"/><path d="M787.02,215.36c.33.23.49.52.49.87,0,.42-.11.73-.33.95s-.48.32-.79.32c-.16,0-.39-.05-.7-.16-.36-.12-.65-.18-.86-.18-.54,0-1.06.19-1.57.56-.51.37-.93.88-1.25,1.53-.32.65-.48,1.37-.48,2.17v6.27c0,.35-.12.64-.35.88-.23.24-.53.36-.9.36s-.66-.12-.88-.35c-.22-.23-.34-.53-.34-.9v-11.13c0-.35.12-.64.35-.88.23-.24.52-.36.87-.36s.66.12.9.36c.23.24.35.54.35.88v1.33c.38-.85.95-1.54,1.72-2.07.76-.53,1.63-.8,2.6-.82.45,0,.84.12,1.17.35Z" fill="#d2691e"/><path d="M801.65,222.4c-.24.22-.53.33-.86.33h-9.15c.12,1.27.6,2.28,1.44,3.04s1.87,1.14,3.08,1.14c.83,0,1.51-.12,2.03-.36.52-.24.98-.55,1.38-.94.26-.16.51-.23.75-.23.29,0,.54.1.74.31s.3.45.3.73c0,.36-.17.69-.52.99-.5.5-1.17.93-2,1.27s-1.68.52-2.55.52c-1.4,0-2.64-.29-3.7-.88-1.07-.59-1.89-1.41-2.47-2.47s-.87-2.25-.87-3.59c0-1.46.3-2.73.9-3.83s1.39-1.95,2.37-2.54c.98-.59,2.03-.88,3.16-.88s2.15.29,3.12.86,1.75,1.36,2.34,2.37c.59,1.01.89,2.13.91,3.38-.02.31-.15.58-.39.79ZM793.15,218.11c-.71.55-1.18,1.39-1.4,2.54h7.67v-.21c-.09-.92-.5-1.67-1.23-2.26-.74-.59-1.57-.88-2.51-.88s-1.81.27-2.52.82Z" fill="#d2691e"/><path d="M808.23,214.78c-.28.56-.63,1.04-1.05,1.43-.42.39-.86.58-1.31.58-.68,0-1.01-.29-1.01-.86,0-.22.06-.39.17-.48.11-.09.25-.17.43-.22.17-.05.3-.09.39-.13.49-.28.73-.67.73-1.17,0-.19-.07-.35-.22-.48-.15-.13-.34-.19-.58-.19-.29,0-.54.06-.73.18-.17-.09-.3-.2-.39-.33s-.12-.3-.1-.51c0-.43.22-.81.66-1.13.44-.32.91-.48,1.39-.48.62,0,1.12.2,1.5.6s.56.96.56,1.69c0,.43-.14.93-.42,1.5ZM813.33,214.78c-.28.56-.63,1.04-1.05,1.43-.43.39-.86.58-1.31.58-.68,0-1.01-.29-1.01-.86,0-.22.06-.39.17-.48.11-.09.25-.17.43-.22.17-.05.3-.09.39-.13.49-.28.73-.67.73-1.17,0-.19-.07-.35-.22-.48-.15-.13-.34-.19-.58-.19-.29,0-.54.06-.73.18-.17-.09-.3-.2-.39-.33-.09-.13-.12-.3-.1-.51,0-.43.22-.81.66-1.13.44-.32.91-.48,1.39-.48.62,0,1.12.2,1.49.6.37.4.56.96.56,1.69,0,.43-.14.93-.42,1.5Z" fill="#d2691e"/></svg>