<?xml version="1.0" encoding="UTF-8"?><svg id="Layer_1" xmlns="http://www.w3.org/2000/svg" viewBox="0 0 574.6 539.02"><path d="M521.12,305.03c.65.33.65.67,0,1v-1Z" fill="#faf3e0"/><path d="M195.62.04l-23.47,14.02c-8.85,7.83-16.44,17.77-19.68,29.32-1.31,4.68-3.17,11.38-.35,15.66,15-25.67,53.21-50.54,82.96-53.05,10.37-.87,15.96,1.39,25.31,2.76,21.6,3.18,45-2.55,66.22-6.72.81.73-4.18,6.65-4.97,7.52-29.28,32.66-81.92,25.75-107.03,63.46,11.73-2.13,23.25-5.34,34.98-7.51,31.86-5.91,65.09-10.44,97.36-5.31,34.38,5.46,69.74,22.45,85.66,54.82l-15.79-8.7c-18.06-7.27-43.5-7.92-57.21,7.7,37.51,4.11,65.56,31.47,88.97,58.54,14.28,16.5,40.29,57.23,63.54,57.55,3.01.04,5.54-1.17,8.48-1.08,1.05.95-5.68,7.06-6.79,7.99-17.42,14.55-38.73,17.99-59.89,9.19-24.85-10.34-31.23-36.56-45.91-57.09-27.71-38.76-77.02-78.3-125.2-85.8-14.14-2.2-27.98-2.29-41.2,3.72-.23,1.79,2.25.97,3.37.87,61.06-5.76,131.04,58.37,158.8,108.45,9.03,16.3,16.56,34.66,16.69,53.53-47.28,8.31-79.11,47.91-107.27,83.22l-11.58,17.91c1.89.32,2.86-1.32,4.02-2.47,26.47-26.29,44.6-52.36,80.1-69.9,18.85-9.32,29.48-8.62,49.1-11.9,62.27-10.39,105.52-45.99,137.27-98.73.49-.82,1.1-3.33,2.49-2.5-7.99,63.91-47.33,120.51-112.75,134.24-10.65,2.24-21.58,2.58-32.24,4.76-60.11,12.34-109.02,72.8-139.41,122.59-14.92,24.45-27.94,50.31-38.6,76.91-2.29.57-1.63-.43-2.27-1.26-33.16-42.66-30.55-113.98-20.4-163.93,3.27-16.1,11.77-39.36,9.6-55.22-1.8-13.21-23.56-26.38-27.95-40.14l.17-1.32c17.53-12.16,27.17-37.52,24.87-58.64-.44-4.07-2.78-10.98-6-13.49,10.51,45.61-27.01,78.53-63.55,97.01l-20,22.02,13.11,38.5-32.28,37.48-56.58-3.23-23.51-35.43,13.82-30.82,2.93-63.98c-5.94-9.63-13.56-19.04-13.99-31,1.84-20.86,8.09-41.25,10.71-62.11C30.7,141.44-2.34,114.86.13,77.02c32.44,9,66.12,12.04,99.44,5.97-.05-36.13,28.07-61.5,59.08-74.43C170.15,3.77,183-.46,195.62.04ZM72.62,245.53v42c0,.9-1.86,3.63-.99,5.5l1.74-1.75,7.25-45.74c-5.9-9.14-17.48-17.41-17.79-29.02l3.78-36.49c-1.48-.25-1.25,1.88-1.5,2.98-2.69,12.13-5.08,24.34-7.57,36.52.81,10.61,7.49,19.19,15.07,26ZM301.61,372.03c-3.08-.19-4.09,3.6-3.98,5.99,1.7.17.55-1.58,1.65-3.11.5-.69,3.05-.47,2.33-2.88ZM296.61,380.02v-1.99h-.98v1.99h.98Z" fill="#faf3e0"/><path d="M519.62,308.04c-14.42,23.27-39.72,35.53-65.01,43.48-12.45,3.91-25.61,6-38,10-70.84,22.88-116.11,113.05-152.33,172.71l-3.65,4.8c2.12-7.53,5.82-15.25,9.13-22.35,27.32-58.51,69.84-139.17,131.87-165.13,35.65-14.92,72.42-12.08,105.32-34.68,1.89-1.3,11.11-10.12,12.67-8.82Z" fill="#faf3e0"/></svg>